
        <svg xmlns="http://www.w3.org/2000/svg" xmlns:xlink="http://www.w3.org/1999/xlink" version="1.1" width="3162.1621621621625" 
        height="613.1713554018602" viewBox="0 0 3162.1621621621625 613.1713554018602">
			
			<g transform="scale(8.108108108108109) translate(10, 10)">
				<defs id="SvgjsDefs1833"><linearGradient id="SvgjsLinearGradient1838"><stop id="SvgjsStop1839" stop-color="#fe8dc6" offset="0"></stop><stop id="SvgjsStop1840" stop-color="#fed1c7" offset="1"></stop></linearGradient><linearGradient id="SvgjsLinearGradient1841"><stop id="SvgjsStop1842" stop-color="#fe8dc6" offset="0"></stop><stop id="SvgjsStop1843" stop-color="#fed1c7" offset="1"></stop></linearGradient></defs><g id="SvgjsG1834" featureKey="symbolFeature-0" transform="matrix(1.0083838924371757,0,0,1.0083838924371757,-15.613242281335792,-23.192829526055043)" fill="url(#SvgjsLinearGradient1838)"><g xmlns="http://www.w3.org/2000/svg"><circle fill="url(#SvgjsLinearGradient1838)" cx="40.884" cy="42.92" r="3.178"></circle><circle fill="url(#SvgjsLinearGradient1838)" cx="59.349" cy="42.919" r="3.179"></circle><path fill="url(#SvgjsLinearGradient1838)" d="M51.646,48.347c-0.428-0.48-1.038-0.755-1.682-0.755c-0.642,0-1.255,0.275-1.68,0.755l-3.86,4.349   c-0.587,0.661-0.731,1.606-0.369,2.413c0.363,0.809,1.166,1.327,2.051,1.327h7.719c0.004,0,0.006,0,0.008,0   c1.243,0,2.249-1.007,2.249-2.247c0-0.636-0.263-1.211-0.687-1.619L51.646,48.347z"></path><path fill="url(#SvgjsLinearGradient1838)" d="M82.836,56.979l-3.773-0.308c0.067-0.352,0.122-0.703,0.17-1.059l3.09,0.252   c0.062,0.007,0.124,0.009,0.186,0.009c1.158,0,2.144-0.891,2.238-2.065c0.101-1.236-0.819-2.323-2.058-2.424l-3.249-0.266   c-0.087-3.481-0.491-8.371-1.418-13.038c-1.335-6.711-3.396-11.237-6.128-13.455c-1.288-1.046-2.838-1.577-4.607-1.577   c-2.809,0-5.715,1.301-8.791,2.678c-2.892,1.294-5.884,2.633-8.43,2.633c-2.53,0-5.51-1.35-8.393-2.655   C38.598,24.314,35.694,23,32.886,23c-1.743,0-3.273,0.52-4.55,1.546c-2.76,2.219-4.845,6.754-6.199,13.479   c-0.947,4.705-1.358,9.623-1.444,13.113l-2.998,0.247c-1.238,0.101-2.159,1.188-2.058,2.424c0.097,1.175,1.08,2.065,2.239,2.065   c0.062,0,0.124-0.002,0.187-0.009l2.838-0.231c0.049,0.354,0.105,0.708,0.171,1.058l-3.524,0.288   c-1.237,0.104-2.158,1.188-2.057,2.426c0.096,1.175,1.08,2.063,2.238,2.063c0.062,0,0.124-0.002,0.187-0.006l4.459-0.366   c4.057,9.936,14.936,17.065,27.69,17.065c12.763,0,23.649-7.141,27.7-17.087l4.705,0.388c0.061,0.004,0.124,0.006,0.185,0.006   c1.158,0,2.143-0.889,2.239-2.063C84.994,58.167,84.074,57.083,82.836,56.979z M50.065,73.666c-10.306,0-19.17-5.353-22.947-12.959   l11.229-0.92c1.238-0.102,2.159-1.188,2.058-2.424c-0.102-1.238-1.183-2.163-2.425-2.058L25.584,56.32   c-0.076-0.348-0.14-0.699-0.195-1.055l13.105-1.074c1.237-0.101,2.158-1.188,2.057-2.426c-0.102-1.236-1.182-2.155-2.424-2.056   L25.2,50.77c0.248-7.992,2.158-19.667,5.954-22.72c0.476-0.383,1.011-0.554,1.732-0.554c1.838,0,4.312,1.12,6.931,2.306   c3.317,1.502,6.748,3.056,10.248,3.056c3.506,0,6.943-1.538,10.266-3.026c2.626-1.175,5.106-2.286,6.955-2.286   c0.739,0,1.287,0.176,1.773,0.572c3.74,3.034,5.622,14.658,5.871,22.631L62.256,49.71c-1.23-0.098-2.323,0.819-2.424,2.056   c-0.102,1.238,0.819,2.325,2.058,2.426l12.855,1.053c-0.055,0.356-0.12,0.708-0.193,1.058l-12.148-0.996   c-1.23-0.102-2.323,0.819-2.424,2.058c-0.102,1.235,0.819,2.322,2.058,2.424l10.985,0.9C69.251,68.305,60.382,73.666,50.065,73.666   z"></path></g></g><g id="SvgjsG1835" featureKey="nameFeature-0" transform="matrix(1.2962962962962963,0,0,1.2962962962962963,86.26666960892854,-5.555555555555555)" fill="url(#SvgjsLinearGradient1841)"><path d="M17.72 12 c2.76 0 5.04 2.24 5.04 5 l0 10.52 c0 2.76 -2.28 4.96 -5.04 4.96 l-8.44 0 l0 7.52 l-6.4 0 l0 -28 l14.84 0 z M16.28 26.08 l0 -7.64 l-7 0 l0 7.64 l7 0 z M39.6 12 l7.8 28 l-6.4 0 l-1.12 -4.04 l-6.92 0 l-1.12 4.04 l-6.4 0 l7.8 -28 l6.36 0 z M34.760000000000005 29.439999999999998 l3.32 0 l-1.68 -5.96 z M66.56 12 l6.4 0 l0 28 l-6.4 0 l-7 -14.56 l0 14.56 l-6.4 0 l0 -28 l6.4 0 l7 14.6 l0 -14.6 z M78.72 12 l19.84 0 l0 6.44 l-6.72 0 l0 21.56 l-6.4 0 l0 -21.56 l-6.72 0 l0 -6.44 z M121.92 18.44 l-11.2 0 l0 4.36 l8.04 0 l0 6.4 l-8.04 0 l0 4.4 l11.2 0 l0 6.4 l-17.6 0 l0 -28 l17.6 0 l0 6.44 z M134.07999999999998 12 l0 21.6 l10.32 0 l0 6.4 l-16.72 0 l0 0 l0 -28 l6.4 0 z M167.76 18.44 l-11.2 0 l0 4.36 l8.04 0 l0 6.4 l-8.04 0 l0 4.4 l11.2 0 l0 6.4 l-17.6 0 l0 -28 l17.6 0 l0 6.44 z M191.11999999999998 18.44 l-11.2 0 l0 4.36 l8.04 0 l0 6.4 l-8.04 0 l0 4.4 l11.2 0 l0 6.4 l-17.6 0 l0 -28 l17.6 0 l0 6.44 z M207.88 28.48 l4.6 -16.48 l6.4 0 l-7.8 28 l-6.4 0 l-7.8 -28 l6.4 0 z"></path></g>
			</g>
		</svg>
	